<?xml version="1.0" encoding="UTF-8" standalone="no"?>
<!-- Created with Inkscape (http://www.inkscape.org/) -->

<svg
   xmlns:dc="http://purl.org/dc/elements/1.1/"
   xmlns:cc="http://creativecommons.org/ns#"
   xmlns:rdf="http://www.w3.org/1999/02/22-rdf-syntax-ns#"
   xmlns:svg="http://www.w3.org/2000/svg"
   xmlns="http://www.w3.org/2000/svg"
   xmlns:sodipodi="http://sodipodi.sourceforge.net/DTD/sodipodi-0.dtd"
   xmlns:inkscape="http://www.inkscape.org/namespaces/inkscape"
   width="6.1340041mm"
   height="8.4762449mm"
   viewBox="0 0 6.1340043 8.4762444"
   version="1.1"
   id="svg8"
   inkscape:version="0.92.3 (2405546, 2018-03-11)"
   sodipodi:docname="vev.svg">
  <defs
     id="defs2" />
  <sodipodi:namedview
     id="base"
     pagecolor="#ffffff"
     bordercolor="#666666"
     borderopacity="1.0"
     inkscape:pageopacity="0.0"
     inkscape:pageshadow="2"
     inkscape:zoom="1.4"
     inkscape:cx="32.378518"
     inkscape:cy="-14.35808"
     inkscape:document-units="mm"
     inkscape:current-layer="layer1"
     showgrid="false"
     inkscape:window-width="596"
     inkscape:window-height="455"
     inkscape:window-x="3125"
     inkscape:window-y="527"
     inkscape:window-maximized="0" />
  <metadata
     id="metadata5">
    <rdf:RDF>
      <cc:Work
         rdf:about="">
        <dc:format>image/svg+xml</dc:format>
        <dc:type
           rdf:resource="http://purl.org/dc/dcmitype/StillImage" />
        <dc:title></dc:title>
      </cc:Work>
    </rdf:RDF>
  </metadata>
  <g
     inkscape:label="Layer 1"
     inkscape:groupmode="layer"
     id="layer1"
     transform="translate(-639.77664,-25.434445)">
    <path
       style="fill:#000000;stroke-width:0.26458332"
       d="m 643.73833,32.186195 c -0.56471,-0.948472 -1.08819,-1.726575 -1.16328,-1.729117 -0.0751,-0.0025 -0.53109,0.598079 -1.01334,1.334714 -0.81752,1.248774 -1.47812,1.809411 -1.77831,1.509215 -0.07,-0.06998 0.4114,-0.858929 1.06974,-1.753221 0.65834,-0.894291 1.19698,-1.724184 1.19698,-1.844207 0,-0.120024 -0.2962,-0.94718 -0.65822,-1.838126 -1.33538,-3.286378 0.31584,-3.220053 1.82888,0.07346 0.0669,0.145521 0.26523,0.03515 0.44084,-0.245264 0.55104,-0.879904 2.07802,-2.414872 2.08551,-2.096428 0.004,0.167278 -0.40956,0.923383 -0.91888,1.680233 -0.50932,0.756851 -0.92604,1.479173 -0.92604,1.605161 0,0.125987 0.48023,0.972088 1.06719,1.880224 1.15835,1.792187 1.21188,2.209187 0.35643,2.776183 l -0.56076,0.371668 z"
       id="path248"
       inkscape:connector-curvature="0" />
  </g>
</svg>
