<?xml version="1.0" encoding="UTF-8" standalone="no"?>
<!-- Created with Inkscape (http://www.inkscape.org/) -->

<svg
   xmlns:dc="http://purl.org/dc/elements/1.1/"
   xmlns:cc="http://creativecommons.org/ns#"
   xmlns:rdf="http://www.w3.org/1999/02/22-rdf-syntax-ns#"
   xmlns:svg="http://www.w3.org/2000/svg"
   xmlns="http://www.w3.org/2000/svg"
   xmlns:sodipodi="http://sodipodi.sourceforge.net/DTD/sodipodi-0.dtd"
   xmlns:inkscape="http://www.inkscape.org/namespaces/inkscape"
   width="6.8081636mm"
   height="8.1685133mm"
   viewBox="0 0 6.8081638 8.1685128"
   version="1.1"
   id="svg8"
   inkscape:version="0.92.3 (2405546, 2018-03-11)"
   sodipodi:docname="chach.svg">
  <defs
     id="defs2" />
  <sodipodi:namedview
     id="base"
     pagecolor="#ffffff"
     bordercolor="#666666"
     borderopacity="1.0"
     inkscape:pageopacity="0.0"
     inkscape:pageshadow="2"
     inkscape:zoom="1.4"
     inkscape:cx="-0.6807974"
     inkscape:cy="-1.9609033"
     inkscape:document-units="mm"
     inkscape:current-layer="layer1"
     showgrid="false"
     inkscape:window-width="596"
     inkscape:window-height="455"
     inkscape:window-x="3125"
     inkscape:window-y="527"
     inkscape:window-maximized="0" />
  <metadata
     id="metadata5">
    <rdf:RDF>
      <cc:Work
         rdf:about="">
        <dc:format>image/svg+xml</dc:format>
        <dc:type
           rdf:resource="http://purl.org/dc/dcmitype/StillImage" />
        <dc:title></dc:title>
      </cc:Work>
    </rdf:RDF>
  </metadata>
  <g
     inkscape:label="Layer 1"
     inkscape:groupmode="layer"
     id="layer1"
     transform="translate(-648.52358,-29.022263)">
    <path
       style="fill:#000000;stroke-width:0.26458335"
       d="m 649.81345,34.892457 c -0.46141,-1.264076 -0.91114,-2.655507 -0.99939,-3.092069 -0.0882,-0.436563 -0.21297,-0.989564 -0.27714,-1.228891 -0.11317,-0.422062 0.51912,-1.284651 0.94167,-1.284651 0.11487,0 0.49331,0.863203 0.841,1.918229 l 0.63215,1.918229 0.0812,-1.583299 c 0.0759,-1.478946 0.5505,-2.517742 1.15043,-2.517742 0.12297,0 0.22718,1.041797 0.23159,2.315104 l 0.008,2.315104 0.85443,-1.455208 c 1.33186,-2.268338 1.61354,-2.645834 1.97427,-2.645834 0.67889,0 -3.15405,6.865879 -4.12219,7.38401 l -0.4771,0.255337 z"
       id="path227"
       inkscape:connector-curvature="0" />
  </g>
</svg>
