<?xml version="1.0" encoding="UTF-8" standalone="no"?>
<!-- Created with Inkscape (http://www.inkscape.org/) -->

<svg
   xmlns:dc="http://purl.org/dc/elements/1.1/"
   xmlns:cc="http://creativecommons.org/ns#"
   xmlns:rdf="http://www.w3.org/1999/02/22-rdf-syntax-ns#"
   xmlns:svg="http://www.w3.org/2000/svg"
   xmlns="http://www.w3.org/2000/svg"
   xmlns:sodipodi="http://sodipodi.sourceforge.net/DTD/sodipodi-0.dtd"
   xmlns:inkscape="http://www.inkscape.org/namespaces/inkscape"
   width="6.94803mm"
   height="10.186459mm"
   viewBox="0 0 6.9480302 10.186458"
   version="1.1"
   id="svg8"
   inkscape:version="0.92.3 (2405546, 2018-03-11)"
   sodipodi:docname="nan.svg">
  <defs
     id="defs2" />
  <sodipodi:namedview
     id="base"
     pagecolor="#ffffff"
     bordercolor="#666666"
     borderopacity="1.0"
     inkscape:pageopacity="0.0"
     inkscape:pageshadow="2"
     inkscape:zoom="1.4"
     inkscape:cx="-70.429397"
     inkscape:cy="5.5945446"
     inkscape:document-units="mm"
     inkscape:current-layer="layer1"
     showgrid="false"
     inkscape:window-width="596"
     inkscape:window-height="455"
     inkscape:window-x="3125"
     inkscape:window-y="527"
     inkscape:window-maximized="0" />
  <metadata
     id="metadata5">
    <rdf:RDF>
      <cc:Work
         rdf:about="">
        <dc:format>image/svg+xml</dc:format>
        <dc:type
           rdf:resource="http://purl.org/dc/dcmitype/StillImage" />
        <dc:title></dc:title>
      </cc:Work>
    </rdf:RDF>
  </metadata>
  <g
     inkscape:label="Layer 1"
     inkscape:groupmode="layer"
     id="layer1"
     transform="translate(-666.9779,-29.003363)">
    <path
       style="fill:#000000;stroke-width:0.26458332"
       d="m 669.46437,38.77177 c 0,-0.229929 -0.33898,-1.390788 -0.75329,-2.579688 -0.4143,-1.1889 -0.97376,-3.027624 -1.24323,-4.086053 l -0.48995,-1.924418 0.59704,-0.589124 0.59703,-0.589124 0.35232,0.473523 c 0.19377,0.260438 0.68352,1.659422 1.08832,3.108854 0.40481,1.449432 0.80494,2.63354 0.8892,2.631351 0.0842,-0.0022 0.47872,-1.055301 0.8766,-2.340248 0.7339,-2.370114 1.53577,-3.741188 2.18803,-3.741188 h 0.35949 l -0.62182,1.918229 c -0.342,1.055026 -0.93605,3.049023 -1.32013,4.431105 -0.6728,2.421059 -1.42434,3.704833 -2.16886,3.704833 -0.19291,0 -0.35075,-0.188124 -0.35075,-0.418052 z"
       id="path214"
       inkscape:connector-curvature="0" />
  </g>
</svg>
