<?xml version="1.0" encoding="UTF-8" standalone="no"?>
<!-- Created with Inkscape (http://www.inkscape.org/) -->

<svg
   xmlns:dc="http://purl.org/dc/elements/1.1/"
   xmlns:cc="http://creativecommons.org/ns#"
   xmlns:rdf="http://www.w3.org/1999/02/22-rdf-syntax-ns#"
   xmlns:svg="http://www.w3.org/2000/svg"
   xmlns="http://www.w3.org/2000/svg"
   xmlns:sodipodi="http://sodipodi.sourceforge.net/DTD/sodipodi-0.dtd"
   xmlns:inkscape="http://www.inkscape.org/namespaces/inkscape"
   width="9.183094mm"
   height="10.41257mm"
   viewBox="0 0 9.1830943 10.412569"
   version="1.1"
   id="svg8"
   inkscape:version="0.92.3 (2405546, 2018-03-11)"
   sodipodi:docname="shash.svg">
  <defs
     id="defs2" />
  <sodipodi:namedview
     id="base"
     pagecolor="#ffffff"
     bordercolor="#666666"
     borderopacity="1.0"
     inkscape:pageopacity="0.0"
     inkscape:pageshadow="2"
     inkscape:zoom="1.4"
     inkscape:cx="30.688403"
     inkscape:cy="-11.68298"
     inkscape:document-units="mm"
     inkscape:current-layer="layer1"
     showgrid="false"
     inkscape:window-width="596"
     inkscape:window-height="455"
     inkscape:window-x="3125"
     inkscape:window-y="527"
     inkscape:window-maximized="0" />
  <metadata
     id="metadata5">
    <rdf:RDF>
      <cc:Work
         rdf:about="">
        <dc:format>image/svg+xml</dc:format>
        <dc:type
           rdf:resource="http://purl.org/dc/dcmitype/StillImage" />
        <dc:title></dc:title>
      </cc:Work>
    </rdf:RDF>
  </metadata>
  <g
     inkscape:label="Layer 1"
     inkscape:groupmode="layer"
     id="layer1"
     transform="translate(-640.22382,-24.205907)">
    <path
       style="fill:#000000;stroke-width:0.26458332"
       d="m 645.96735,34.276621 c 0,-0.390396 -1.89989,-3.421039 -2.14683,-3.424556 -0.0894,-0.0013 -0.49755,0.481231 -0.90711,1.072231 -0.80162,1.156732 -2.10671,2.365038 -2.55448,2.365038 -0.15189,0 0.13638,-0.506016 0.64059,-1.124479 0.50422,-0.618464 1.23443,-1.630495 1.62269,-2.248959 l 0.70594,-1.124479 h -1.44291 c -0.7936,0 -1.52139,-0.126984 -1.61731,-0.282187 -0.26261,-0.424917 0.69316,-1.022791 1.65027,-1.032315 l 0.84565,-0.0084 -0.51492,-1.496629 c -0.64503,-1.874811 -0.64263,-2.12057 0.0242,-2.47745 l 0.53912,-0.288529 0.78643,1.734429 c 0.43254,0.953936 0.82498,1.734429 0.87211,1.734429 0.0471,0 0.52997,-0.645092 1.07299,-1.433538 0.54302,-0.788445 1.15813,-1.499084 1.3669,-1.579196 0.47554,-0.182482 0.48413,0.09578 0.0238,0.77105 -0.19568,0.287041 -0.6941,1.105972 -1.10761,1.819847 l -0.75184,1.297956 2.16594,-0.148457 c 1.19127,-0.08165 2.16594,-0.0434 2.16594,0.08501 0,0.445118 -1.19739,0.989942 -2.57203,1.170301 l -1.38142,0.181247 1.10948,1.573235 1.10948,1.573236 -0.27182,0.430925 c -0.14951,0.237009 -0.53315,0.604439 -0.85255,0.81651 l -0.58072,0.385586 z"
       id="path274"
       inkscape:connector-curvature="0" />
  </g>
</svg>
