<?xml version="1.0" encoding="UTF-8" standalone="no"?>
<!-- Created with Inkscape (http://www.inkscape.org/) -->

<svg
   xmlns:dc="http://purl.org/dc/elements/1.1/"
   xmlns:cc="http://creativecommons.org/ns#"
   xmlns:rdf="http://www.w3.org/1999/02/22-rdf-syntax-ns#"
   xmlns:svg="http://www.w3.org/2000/svg"
   xmlns="http://www.w3.org/2000/svg"
   xmlns:sodipodi="http://sodipodi.sourceforge.net/DTD/sodipodi-0.dtd"
   xmlns:inkscape="http://www.inkscape.org/namespaces/inkscape"
   width="9.9009199mm"
   height="10.849646mm"
   viewBox="0 0 9.9009206 10.849643"
   version="1.1"
   id="svg8"
   inkscape:version="0.92.3 (2405546, 2018-03-11)"
   sodipodi:docname="kak.svg">
  <defs
     id="defs2" />
  <sodipodi:namedview
     id="base"
     pagecolor="#ffffff"
     bordercolor="#666666"
     borderopacity="1.0"
     inkscape:pageopacity="0.0"
     inkscape:pageshadow="2"
     inkscape:zoom="1.4"
     inkscape:cx="1.76519"
     inkscape:cy="2.4226352"
     inkscape:document-units="mm"
     inkscape:current-layer="layer1"
     showgrid="false"
     inkscape:window-width="596"
     inkscape:window-height="455"
     inkscape:window-x="3125"
     inkscape:window-y="527"
     inkscape:window-maximized="0" />
  <metadata
     id="metadata5">
    <rdf:RDF>
      <cc:Work
         rdf:about="">
        <dc:format>image/svg+xml</dc:format>
        <dc:type
           rdf:resource="http://purl.org/dc/dcmitype/StillImage" />
        <dc:title></dc:title>
      </cc:Work>
    </rdf:RDF>
  </metadata>
  <g
     inkscape:label="Layer 1"
     inkscape:groupmode="layer"
     id="layer1"
     transform="translate(-647.87642,-27.500943)">
    <path
       style="fill:#000000;stroke-width:0.26458335"
       d="m 651.74155,35.569188 c 0.0392,-1.527969 0.0246,-2.778125 -0.0324,-2.778125 -0.057,0 -0.64789,1.053752 -1.31308,2.341671 -0.79335,1.536083 -1.4348,2.444358 -1.86454,2.640161 -0.36031,0.16417 -0.65511,0.244611 -0.65511,0.178758 0,-0.329957 1.70218,-4.337022 2.76986,-6.520479 1.06391,-2.175726 2.40181,-3.934926 2.989,-3.930222 0.10685,8.54e-4 0.59312,1.102184 1.08061,2.447396 0.4875,1.345212 1.37575,3.206966 1.9739,4.137231 l 1.08755,1.691392 -0.90557,0.756004 c -0.49806,0.415802 -0.9696,0.753412 -1.04786,0.750244 -0.0783,-0.0032 -0.61853,-0.774588 -1.20061,-1.714265 l -1.05834,-1.708505 -0.15308,1.709456 c -0.0996,1.1127 -0.32177,1.895861 -0.63632,2.243431 -0.94781,1.047323 -1.10948,0.696458 -1.03404,-2.244148 z"
       id="path300"
       inkscape:connector-curvature="0" />
  </g>
</svg>
